<svg width="11" height="18" viewBox="0 0 11 18" fill="none" xmlns="http://www.w3.org/2000/svg">
<path d="M5.00549 17.7738L0.192989 12.3646C0.0677555 12.2189 -0.00154095 12.0237 2.54725e-05 11.8211C0.00159189 11.6185 0.0738957 11.4246 0.201364 11.2814C0.328832 11.1381 0.501265 11.0568 0.681526 11.0551C0.861786 11.0533 1.03545 11.1312 1.16511 11.272L4.80405 15.362L4.80405 0.772735C4.80405 0.567793 4.87648 0.371245 5.00542 0.226329C5.13435 0.0814132 5.30922 2.32073e-07 5.49155 2.40043e-07C5.67389 2.48014e-07 5.84876 0.0814132 5.97769 0.226329C6.10662 0.371245 6.17905 0.567793 6.17905 0.772735L6.17905 15.362L9.81799 11.272C9.88141 11.1982 9.95727 11.1393 10.0411 11.0988C10.125 11.0583 10.2152 11.037 10.3065 11.0361C10.3978 11.0352 10.4883 11.0547 10.5728 11.0936C10.6573 11.1325 10.7341 11.1898 10.7986 11.2624C10.8632 11.3349 10.9142 11.4212 10.9488 11.5162C10.9834 11.6111 11.0008 11.7129 11 11.8155C10.9992 11.9181 10.9802 12.0195 10.9442 12.1138C10.9082 12.2081 10.8558 12.2933 10.7901 12.3646L5.97761 17.7738C5.84869 17.9186 5.67385 18 5.49155 18C5.30925 18 5.13441 17.9186 5.00549 17.7738Z" fill="white"/>
</svg>
