<svg width="24" height="24" viewBox="0 0 24 24" fill="none" xmlns="http://www.w3.org/2000/svg">
<path d="M17.582 8.461C18.155 9.058 18.137 10.008 17.539 10.582L12.934 15.006C12.266 15.665 11.382 15.995 10.496 15.995C9.61 15.995 8.722 15.665 8.045 15.004L6.498 13.616C5.882 13.062 5.831 12.114 6.385 11.498C6.939 10.883 7.885 10.83 8.504 11.385L10.096 12.815C10.333 13.045 10.651 13.047 10.842 12.857L15.462 8.419C16.059 7.845 17.006 7.862 17.582 8.461ZM24 12C24 18.617 18.617 24 12 24C5.383 24 0 18.617 0 12C0 5.383 5.383 0 12 0C18.617 0 24 5.383 24 12ZM21 12C21 7.038 16.963 3 12 3C7.037 3 3 7.038 3 12C3 16.962 7.037 21 12 21C16.963 21 21 16.962 21 12Z" fill="#2682E8"/>
</svg>
