<svg width="31" height="32" viewBox="0 0 31 32" fill="none" xmlns="http://www.w3.org/2000/svg">
<path fill-rule="evenodd" clip-rule="evenodd" d="M1.72222 21.8947C2.67337 21.8947 3.44445 22.6488 3.44445 23.5789V26.9474C3.44445 27.394 3.62587 27.8223 3.9489 28.1383C4.27186 28.4541 4.70989 28.6316 5.16667 28.6316H25.8333C26.2901 28.6316 26.728 28.4542 27.0511 28.1383C27.3742 27.8223 27.5556 27.394 27.5556 26.9474V23.5789C27.5556 22.6488 28.3266 21.8947 29.2778 21.8947C30.229 21.8947 31 22.6488 31 23.5789V26.9474C31 28.2873 30.4558 29.5725 29.4867 30.5201C28.5178 31.4676 27.2035 32 25.8333 32H5.16667C3.79642 32 2.48221 31.4678 1.51325 30.5201C0.544361 29.5725 0 28.2873 0 26.9474V23.5789C0 22.6488 0.771057 21.8947 1.72222 21.8947Z" fill="#2682E8"/>
<path fill-rule="evenodd" clip-rule="evenodd" d="M5.67109 12.2828C6.34367 11.625 7.43412 11.625 8.1067 12.2828L15.5 19.5129L22.8933 12.2828C23.5658 11.625 24.6564 11.625 25.3289 12.2828C26.0016 12.9405 26.0016 14.0069 25.3289 14.6646L16.7178 23.0856C16.0452 23.7433 14.9547 23.7433 14.2822 23.0856L5.67109 14.6646C4.99853 14.0069 4.99853 12.9405 5.67109 12.2828Z" fill="#2682E8"/>
<path fill-rule="evenodd" clip-rule="evenodd" d="M15.5 0C16.4512 0 17.2222 0.754055 17.2222 1.68421V21.8947C17.2222 22.8249 16.4512 23.5789 15.5 23.5789C14.5488 23.5789 13.7778 22.8249 13.7778 21.8947V1.68421C13.7778 0.754055 14.5488 0 15.5 0Z" fill="#2682E8"/>
</svg>
