<svg width="18" height="24" viewBox="0 0 18 24" fill="none" xmlns="http://www.w3.org/2000/svg">
<path d="M17.7972 5.83087L12.2588 0.206016C12.1296 0.0746719 11.9531 0 11.7692 0H2.07692C0.931708 0 0 0.946266 0 2.10938V21.8906C0 23.0537 0.931708 24 2.07692 24H15.9231C17.0683 24 18 23.0537 18 21.8906V6.32812C18 6.13641 17.9208 5.95636 17.7972 5.83087ZM12.4615 2.40061L15.6363 5.625H13.1538C12.7721 5.625 12.4615 5.30958 12.4615 4.92188V2.40061ZM15.9231 22.5938H2.07692C1.69518 22.5938 1.38462 22.2783 1.38462 21.8906V2.10938C1.38462 1.72167 1.69518 1.40625 2.07692 1.40625H11.0769V4.92188C11.0769 6.08498 12.0086 7.03125 13.1538 7.03125H16.6154V21.8906C16.6154 22.2783 16.3048 22.5938 15.9231 22.5938Z" fill="#2682E8"/>
<path d="M13.1538 9.9375H4.84615C4.46382 9.9375 4.15385 10.2523 4.15385 10.6406C4.15385 11.0289 4.46382 11.3438 4.84615 11.3438H13.1538C13.5362 11.3438 13.8462 11.0289 13.8462 10.6406C13.8462 10.2523 13.5362 9.9375 13.1538 9.9375Z" fill="#2682E8"/>
<path d="M13.1538 12.75H4.84615C4.46382 12.75 4.15385 13.0648 4.15385 13.4531C4.15385 13.8414 4.46382 14.1562 4.84615 14.1562H13.1538C13.5362 14.1562 13.8462 13.8414 13.8462 13.4531C13.8462 13.0648 13.5362 12.75 13.1538 12.75Z" fill="#2682E8"/>
<path d="M13.1538 15.5625H4.84615C4.46382 15.5625 4.15385 15.8773 4.15385 16.2656C4.15385 16.6539 4.46382 16.9688 4.84615 16.9688H13.1538C13.5362 16.9688 13.8462 16.6539 13.8462 16.2656C13.8462 15.8773 13.5362 15.5625 13.1538 15.5625Z" fill="#2682E8"/>
<path d="M10.3846 18.375H4.84615C4.46382 18.375 4.15385 18.6898 4.15385 19.0781C4.15385 19.4664 4.46382 19.7812 4.84615 19.7812H10.3846C10.767 19.7812 11.0769 19.4664 11.0769 19.0781C11.0769 18.6898 10.767 18.375 10.3846 18.375Z" fill="#2682E8"/>
</svg>
