<svg width="14" height="16" viewBox="0 0 14 16" fill="none" xmlns="http://www.w3.org/2000/svg">
<path fill-rule="evenodd" clip-rule="evenodd" d="M0.341704 8.33474C0.797321 7.88842 1.53601 7.88842 1.99162 8.33474L6.99996 13.2409L12.0083 8.33474C12.4639 7.88842 13.2026 7.88842 13.6582 8.33474C14.1139 8.78103 14.1139 9.50469 13.6582 9.95097L7.82491 15.6653C7.36932 16.1115 6.63059 16.1115 6.17501 15.6653L0.341704 9.95097C-0.113901 9.50469 -0.113901 8.78103 0.341704 8.33474Z" fill="#2682E8"/>
<path fill-rule="evenodd" clip-rule="evenodd" d="M6.99996 0C7.64431 0 8.16662 0.51168 8.16662 1.14286V14.8571C8.16662 15.4883 7.64431 16 6.99996 16C6.35561 16 5.8333 15.4883 5.8333 14.8571V1.14286C5.8333 0.51168 6.35561 0 6.99996 0Z" fill="#2682E8"/>
</svg>
