<svg width="18" height="11" viewBox="0 0 18 11" fill="none" xmlns="http://www.w3.org/2000/svg">
<path d="M17.7738 5.00549L12.3646 0.19299C12.2189 0.067756 12.0237 -0.00154042 11.8211 2.59892e-05C11.6185 0.0015924 11.4246 0.0738962 11.2814 0.201364C11.1381 0.328832 11.0568 0.501266 11.0551 0.681526C11.0533 0.861786 11.1312 1.03545 11.272 1.16511L15.362 4.80405H0.772735C0.567793 4.80405 0.371245 4.87648 0.226329 5.00542C0.081413 5.13435 0 5.30922 0 5.49155C0 5.67389 0.081413 5.84876 0.226329 5.97769C0.371245 6.10662 0.567793 6.17905 0.772735 6.17905H15.362L11.272 9.81799C11.1982 9.88141 11.1393 9.95727 11.0988 10.0411C11.0583 10.125 11.037 10.2152 11.0361 10.3065C11.0352 10.3978 11.0547 10.4883 11.0936 10.5728C11.1325 10.6573 11.1898 10.7341 11.2624 10.7986C11.3349 10.8632 11.4212 10.9142 11.5162 10.9488C11.6111 10.9834 11.7129 11.0008 11.8155 11C11.9181 10.9992 12.0195 10.9802 12.1138 10.9442C12.2081 10.9082 12.2933 10.8558 12.3646 10.7901L17.7738 5.97761C17.9186 5.84869 18 5.67385 18 5.49155C18 5.30925 17.9186 5.13441 17.7738 5.00549Z" fill="#2682E8"/>
</svg>
