<svg width="24" height="24" viewBox="0 0 24 24" fill="none" xmlns="http://www.w3.org/2000/svg">
<path d="M19.58 9.32472L19.6963 9.20841C19.7738 9.13086 19.8514 9.05332 19.9677 8.97577C20.0452 8.89823 20.1228 8.82069 20.2003 8.74314L20.8207 8.16156C20.9758 8.00647 21.0533 7.77384 20.9758 7.5412C20.937 7.46366 20.8982 7.38611 20.8595 7.30857C20.6656 7.11471 20.3554 7.07594 20.1228 7.19225C20.084 7.23103 20.0452 7.23102 20.0065 7.2698L19.5024 7.73506C17.9515 9.13086 16.4394 10.4879 14.8885 11.8837C14.5396 12.1939 14.1906 12.504 13.8417 12.8142C13.2989 13.2795 12.6397 13.5121 11.9806 13.5121C11.3215 13.5121 10.7011 13.3183 10.1195 12.8142C9.7706 12.504 9.42165 12.1939 9.0727 11.8837C7.52181 10.4879 6.00969 9.13086 4.45881 7.73506L3.95477 7.2698C3.91599 7.23102 3.87722 7.23103 3.83845 7.19225C3.60582 7.03716 3.29564 7.11471 3.10178 7.30857C3.02423 7.38611 2.98546 7.46366 2.98546 7.5412C2.90792 7.73506 2.98546 8.00647 3.14055 8.16156L3.76091 8.74314L3.99354 8.97577C4.07108 9.05332 4.14863 9.13086 4.26494 9.20841L4.38126 9.32472C5.11793 10.0226 5.89338 10.6818 6.63005 11.3409C6.90145 11.5735 7.17286 11.8449 7.48304 12.1163C7.44426 12.1551 7.40549 12.1939 7.36672 12.2326C6.16478 13.4346 4.96284 14.5977 3.76091 15.7997C3.72213 15.8385 3.64459 15.916 3.60582 15.9548C3.45073 16.1486 3.45073 16.42 3.56704 16.6139C3.72213 16.8078 3.95477 16.9241 4.1874 16.8078C4.30372 16.769 4.42003 16.6914 4.49758 16.5751C5.69952 15.412 6.90145 14.21 8.10339 13.0469C8.18094 12.9693 8.21971 12.9305 8.29725 12.853C8.6462 13.1632 8.95638 13.4346 9.26656 13.706C9.88692 14.2876 10.6624 14.6365 11.5153 14.7141C11.6704 14.7141 11.8255 14.7528 11.9806 14.7528C12.1357 14.7528 12.2908 14.7528 12.4459 14.7141C13.2989 14.6365 14.0355 14.2488 14.6947 13.706C15.0048 13.4346 15.315 13.1244 15.664 12.853C15.7415 12.9305 15.8191 12.9693 15.8578 13.0469C17.0598 14.21 18.2617 15.412 19.4637 16.5751C19.5412 16.6527 19.6575 16.769 19.7738 16.8078C20.0065 16.8853 20.2391 16.8078 20.3942 16.6139C20.5493 16.42 20.5105 16.1486 20.3554 15.9548C20.3166 15.916 20.2391 15.8385 20.2003 15.7997C18.9984 14.5977 17.7964 13.4346 16.5945 12.2326C16.5557 12.1939 16.517 12.1551 16.4782 12.1163C16.7496 11.8449 17.021 11.6123 17.3312 11.3409C18.0679 10.6818 18.8433 10.0226 19.58 9.32472Z" fill="#2682E8"/>
<path d="M20.433 20.8401H3.52827C1.58966 20.8401 0 19.2504 0 17.3118V6.68821C0 4.7496 1.58966 3.15994 3.52827 3.15994H20.4717C22.4103 3.15994 24 4.7496 24 6.68821V17.3118C23.9612 19.2504 22.4103 20.8401 20.433 20.8401ZM3.52827 4.4782C2.28756 4.4782 1.31826 5.48628 1.31826 6.68821V17.3118C1.31826 18.5525 2.32633 19.5218 3.52827 19.5218H20.4717C21.7124 19.5218 22.6817 18.5137 22.6817 17.3118V6.68821C22.6817 5.4475 21.6737 4.4782 20.4717 4.4782H3.52827Z" fill="#2682E8"/>
</svg>
